<svg xmlns="http://www.w3.org/2000/svg" width="1266" height="112" fill="none"><mask id="a" width="1266" height="112" x="0" y="0" maskUnits="userSpaceOnUse" style="mask-type:luminance"><path fill="#fff" d="M1266 0H0v112h1266z"/></mask><g mask="url(#a)"><path fill="#52a8bd" d="M79.907 13.77q14.19 0 23.22 4.3 9.245 4.084 16.34 9.675 4.3 3.225 6.45.86 2.365-2.58 3.225-11.825h4.945q-.43 7.955-.645 19.35t-.215 30.1h-4.945q-1.505-9.245-2.795-14.62-1.29-5.59-3.225-9.46-1.72-3.87-4.73-7.74-6.665-8.815-16.77-12.685-10.105-4.085-21.285-4.085-10.535 0-19.135 5.375-8.385 5.16-14.62 15.05-6.02 9.89-9.46 23.865-3.225 13.975-3.225 31.39 0 18.06 3.655 32.035 3.655 13.76 10.105 23.22 6.665 9.46 15.48 14.405 9.03 4.73 19.35 4.73 9.675 0 20.21-3.87t16.555-12.47q4.73-6.236 6.45-13.545 1.935-7.31 3.44-20.425h4.945q0 19.565.215 31.605.214 11.825.645 19.995h-4.945q-.86-9.244-3.01-11.61-1.935-2.365-6.665.645a117 117 0 0 1-16.985 9.89q-8.815 4.085-22.79 4.085-20.425 0-35.905-9.245-15.266-9.245-23.865-26.66-8.385-17.415-8.385-41.925 0-24.08 8.815-42.14t24.08-28.165Q59.912 13.77 79.907 13.77m99.003-9.245q5.589 0 9.675 4.085 4.085 4.084 4.085 9.675 0 5.59-4.085 9.675-4.086 4.085-9.675 4.085t-9.675-4.085q-4.085-4.084-4.085-9.675 0-5.59 4.085-9.675 4.084-4.085 9.675-4.085m11.18 51.385v93.095q0 9.03 3.655 12.255 3.87 3.225 12.685 3.225V169q-3.656-.215-11.18-.43-7.311-.43-14.835-.43-7.311 0-14.835.43-7.526.215-11.18.43v-4.515q8.814 0 12.47-3.225 3.87-3.225 3.87-12.255V81.71q0-9.675-3.44-14.19-3.441-4.73-12.9-4.73v-4.515q6.88.645 13.33.645 6.234 0 11.825-.645 5.805-.86 10.535-2.365m61.913-33.325V58.49h31.82v4.3h-31.82v83.205q0 10.106 3.655 14.19 3.655 4.085 10.105 4.085t11.18-5.16q4.73-5.375 8.17-17.845l4.3 1.075q-2.15 12.47-8.6 21.07-6.235 8.6-19.35 8.6-7.31 0-12.04-1.935a24.2 24.2 0 0 1-8.385-5.16q-4.73-4.945-6.665-11.825-1.72-6.88-1.72-18.275V62.79h-20.64v-4.3h20.64V25.595q5.375-.215 10.32-.86t9.03-2.15m65.901-18.06q5.589 0 9.675 4.085 4.085 4.084 4.085 9.675 0 5.59-4.085 9.675-4.086 4.085-9.675 4.085t-9.675-4.085q-4.085-4.084-4.085-9.675 0-5.59 4.085-9.675 4.084-4.085 9.675-4.085m11.18 51.385v93.095q0 9.03 3.655 12.255 3.87 3.225 12.685 3.225V169q-3.656-.215-11.18-.43-7.311-.43-14.835-.43-7.311 0-14.835.43-7.526.215-11.18.43v-4.515q8.814 0 12.47-3.225 3.87-3.225 3.87-12.255V81.71q0-9.675-3.44-14.19-3.441-4.73-12.9-4.73v-4.515q6.88.645 13.33.645 6.234 0 11.825-.645 5.804-.86 10.535-2.365m115.448 1.29-62.135 108.575h23.65q8.6 0 14.835-3.44 6.45-3.44 10.32-10.965 3.87-7.74 4.73-20.21h4.945q0 13.76.215 23.22.214 9.46.645 15.48-9.46-.43-19.78-.645a952 952 0 0 0-20.21-.215q-10.75 0-21.93.215-11.18.43-21.5.86L420.452 61.5h-23.65q-9.46 0-15.91 3.44-6.236 3.44-9.675 11.18-3.225 7.525-4.3 19.995h-4.945q0-13.975-.215-23.22-.214-9.46-.645-15.48 9.46.43 19.565.645 10.32.215 20.425.215 10.75 0 21.93-.215 11.18-.43 21.5-.86m66.346-1.935q18.92 0 29.455 11.61 10.75 11.395 10.75 35.69h-75.895l-.215-4.085h55.47q.43-10.534-1.72-19.35-2.15-9.03-6.88-14.405-4.515-5.375-11.825-5.375-9.89 0-17.63 9.89-7.525 9.89-9.03 31.39l.645.86a93 93 0 0 0-.645 7.095q-.215 3.87-.215 7.74 0 14.62 4.73 25.155t12.255 16.125q7.74 5.375 15.91 5.375 6.45 0 12.255-1.935 5.805-2.15 10.75-6.88t8.6-12.685l4.3 1.72q-2.366 7.095-7.74 13.76t-13.545 10.965q-8.17 4.085-18.92 4.085-15.48 0-26.66-7.095-10.965-7.095-16.985-19.565-5.805-12.686-5.805-29.025 0-18.92 6.02-32.465 6.02-13.76 16.985-21.07 10.965-7.525 25.585-7.525m128.755 0q8.169 0 13.545 2.15 5.59 2.15 9.245 6.02 4.084 4.3 5.805 10.75 1.72 6.45 1.72 17.415v57.405q0 9.03 3.655 12.255 3.87 3.225 12.685 3.225V169q-3.656-.215-11.18-.43a256 256 0 0 0-14.62-.43q-7.096 0-13.975.43-6.666.215-10.105.43v-4.515q7.74 0 10.965-3.225t3.225-12.255V86.87q0-6.665-1.075-12.255t-4.945-9.03q-3.655-3.44-11.395-3.44-9.03 0-15.91 5.16-6.666 5.16-10.535 14.19-3.655 8.815-3.655 19.78v47.73q0 9.03 3.225 12.255t10.965 3.225V169q-3.441-.215-10.32-.43-6.665-.43-13.76-.43-7.096 0-14.62.43-7.526.215-11.18.43v-4.515q8.814 0 12.47-3.225 3.87-3.225 3.87-12.255V81.71q0-9.675-3.44-14.19-3.441-4.73-12.9-4.73v-4.515q6.88.645 13.33.645 6.234 0 11.825-.645 5.804-.86 10.535-2.365v25.37q5.589-14.62 15.48-20.21 10.105-5.805 21.07-5.805M805.759 16.78a277 277 0 0 0-1.29 14.62q-.215 7.095-.215 10.75 0 3.87.215 7.525.215 3.44.43 5.805h-4.945q-1.29-12.685-3.655-19.995-2.365-7.525-8.17-10.535-5.59-3.225-16.985-3.225h-17.845q-7.31 0-11.18 1.29-3.655 1.075-4.945 4.945-1.29 3.656-1.29 11.61v106.64q0 7.74 1.29 11.61t4.945 5.16q3.87 1.075 11.18 1.075h15.695q13.545 0 20.425-3.655 7.095-3.655 10.105-11.825 3.225-8.385 4.73-22.575h4.945q-.645 5.805-.645 15.48 0 4.085.215 11.825.43 7.525 1.29 15.695-10.965-.43-24.725-.43-13.76-.215-24.51-.215h-12.255q-7.31 0-15.91.215-8.6 0-17.415.215-8.816 0-16.77.215v-4.3q7.31-.43 10.965-1.72 3.87-1.29 5.16-5.16t1.29-11.61V39.57q0-7.954-1.29-11.61-1.29-3.87-5.16-5.16-3.655-1.505-10.965-1.72v-4.3q7.954.215 16.77.43 8.815 0 17.415.215h50.525q12.685-.214 22.575-.645m-36.98 73.53v4.3h-39.345v-4.3zm6.235-28.38q-.86 12.255-.86 18.705.215 6.45.215 11.825t.215 11.825 1.075 18.705h-4.945a185 185 0 0 0-2.15-13.33q-1.075-6.665-5.16-10.75-3.87-4.3-13.33-4.3v-4.3q7.095 0 10.75-2.795 3.87-3.01 5.59-7.525a41.7 41.7 0 0 0 2.365-9.245q.645-4.945 1.29-8.815zm82.21 108.575q-8.815 0-15.265-3.225-6.45-3.44-9.89-9.46-3.225-6.02-3.225-13.975 0-9.46 4.3-15.48 4.515-6.02 11.395-9.675a85 85 0 0 1 14.405-6.02 816 816 0 0 1 14.62-4.73q6.88-2.365 11.18-5.375 4.515-3.01 4.515-7.955V81.28q0-9.03-2.795-13.76-2.58-4.73-7.095-6.235-4.515-1.72-10.105-1.72-5.375 0-11.61 1.505-6.02 1.505-9.675 6.235 4.086.86 7.095 4.3 3.01 3.44 3.01 8.815t-3.44 8.6q-3.44 3.01-8.815 3.01-6.234 0-9.245-3.87-2.795-4.085-2.795-9.03 0-5.59 2.795-9.03t7.095-6.45q4.945-3.44 12.685-5.805 7.956-2.58 17.845-2.58 8.816 0 15.05 2.15 6.236 1.935 10.32 5.805 5.59 5.16 7.31 12.685 1.72 7.31 1.72 17.63v59.77q0 5.375 1.505 7.74 1.72 2.365 5.16 2.365a9.96 9.96 0 0 0 4.515-1.075q2.151-1.075 5.16-3.44l2.365 3.655q-4.514 3.44-8.6 5.805-4.085 2.15-10.965 2.15-6.234 0-10.32-2.15-4.084-2.15-6.235-6.235-1.935-4.3-1.935-10.75-5.805 9.675-13.975 14.405-7.955 4.73-18.06 4.73m7.74-8.6q7.095 0 13.115-4.085 6.236-4.084 11.18-12.255v-42.14q-2.58 3.655-7.525 6.235a424 424 0 0 1-10.75 4.945 69 69 0 0 0-11.18 5.805q-5.16 3.225-8.6 8.6t-3.44 13.975 4.515 13.76q4.73 5.16 12.685 5.16m135.676-106.64c3.87 0 7.24.788 10.1 2.365 3.01 1.577 5.31 3.655 6.88 6.235q2.58 3.655 2.58 8.385c0 3.583-1.14 6.737-3.44 9.46-2.15 2.723-5.08 4.085-8.81 4.085q-4.514 0-7.955-2.795-3.44-3.01-3.44-8.385 0-4.085 2.15-6.88 2.364-3.01 5.155-4.73c-1-1.433-2.5-2.15-4.51-2.15q-6.666 0-12.255 4.085-5.59 3.87-9.46 10.105a56 56 0 0 0-6.02 13.33q-2.15 6.88-2.15 12.9v45.58q0 10.535 6.02 14.19 6.234 3.44 16.77 3.44V169q-4.945-.215-13.975-.43-9.03-.43-19.135-.43-7.31 0-14.62.43-7.096.215-10.75.43v-4.515q8.814 0 12.47-3.225 3.87-3.225 3.87-12.255V81.71q0-9.675-3.44-14.19-3.441-4.73-12.9-4.73v-4.515q6.88.645 13.33.645 6.234 0 11.825-.645 5.805-.86 10.535-2.365v26.875q2.364-6.235 6.665-12.47 4.515-6.45 10.75-10.75 6.234-4.3 13.76-4.3m63.49-32.68V58.49h31.82v4.3h-31.82v83.205q0 10.106 3.66 14.19c2.43 2.723 5.8 4.085 10.1 4.085s8.03-1.72 11.18-5.16c3.16-3.583 5.88-9.532 8.17-17.845l4.3 1.075c-1.43 8.313-4.3 15.337-8.6 21.07q-6.225 8.6-19.35 8.6c-4.87 0-8.88-.645-12.04-1.935a24.1 24.1 0 0 1-8.38-5.16c-3.16-3.297-5.38-7.238-6.67-11.825-1.14-4.587-1.72-10.678-1.72-18.275V62.79h-20.64v-4.3h20.64V25.595q5.385-.215 10.32-.86 4.95-.645 9.03-2.15m75.15-21.93v80.41q5.58-14.62 15.48-20.21c6.73-3.727 13.76-5.59 21.07-5.59 5.44 0 9.96.717 13.54 2.15 3.73 1.433 6.81 3.44 9.25 6.02 2.72 2.867 4.66 6.45 5.8 10.75 1.15 4.3 1.72 10.105 1.72 17.415v57.405q0 9.03 3.66 12.255c2.58 2.15 6.81 3.225 12.68 3.225V169c-2.43-.143-6.16-.287-11.18-.43-5.01-.287-9.89-.43-14.62-.43s-9.39.143-13.97.43c-4.45.143-7.81.287-10.11.43v-4.515c5.16 0 8.82-1.075 10.97-3.225s3.22-6.235 3.22-12.255V86.87c0-4.443-.36-8.528-1.07-12.255q-1.08-5.59-4.95-9.03c-2.43-2.293-6.23-3.44-11.39-3.44-5.88 0-11.11 1.648-15.7 4.945q-6.66 4.945-10.53 13.76t-3.87 20.21v47.945c0 6.02 1.07 10.105 3.22 12.255s5.81 3.225 10.97 3.225V169q-3.45-.215-10.32-.43c-4.45-.287-9.03-.43-13.76-.43s-9.61.143-14.62.43c-5.02.143-8.75.287-11.18.43v-4.515c5.87 0 10.03-1.075 12.47-3.225q3.87-3.225 3.87-12.255V26.455c0-6.45-1.15-11.18-3.44-14.19q-3.45-4.73-12.9-4.73V3.02c4.58.43 9.03.645 13.33.645 4.15 0 8.1-.215 11.82-.645 3.87-.573 7.38-1.362 10.54-2.365"/></g></svg>