<svg xmlns="http://www.w3.org/2000/svg" width="1358" height="193" fill="none"><path fill="#000" d="M76.638 14.701q15.906 0 26.028 4.82 10.363 4.58 18.316 10.845 4.82 3.615 7.23.964 2.65-2.892 3.615-13.255h5.543q-.481 8.917-.723 21.69-.241 12.774-.241 33.74h-5.543q-1.687-10.362-3.133-16.388-1.446-6.266-3.615-10.604-1.928-4.338-5.302-8.676-7.471-9.88-18.798-14.219-11.326-4.58-23.859-4.579-11.809 0-21.449 6.025-9.4 5.785-16.388 16.87-6.748 11.086-10.604 26.751Q24.1 84.351 24.1 103.871q0 20.244 4.097 35.909 4.097 15.424 11.327 26.028 7.47 10.604 17.352 16.147 10.122 5.302 21.69 5.302 10.845 0 22.654-4.338t18.557-13.978q5.303-6.989 7.23-15.183 2.169-8.194 3.856-22.895h5.543q0 21.932.241 35.427.241 13.256.723 22.413h-5.543q-.964-10.363-3.374-13.014-2.169-2.65-7.471.723-8.917 6.266-19.039 11.086-9.881 4.58-25.546 4.579-22.895 0-40.247-10.363-17.11-10.363-26.751-29.884Q0 132.309 0 104.835q0-26.991 9.881-47.236t26.992-31.57Q54.225 14.7 76.638 14.7M187.613 4.338q6.266 0 10.845 4.58 4.58 4.578 4.579 10.844 0 6.266-4.579 10.845-4.58 4.58-10.845 4.58t-10.845-4.58-4.579-10.845q0-6.265 4.579-10.845 4.58-4.58 10.845-4.579m12.532 57.6V166.29q0 10.122 4.097 13.737 4.338 3.615 14.219 3.615v5.061q-4.097-.241-12.532-.482a284 284 0 0 0-16.629-.482q-8.195 0-16.629.482-8.435.241-12.532.482v-5.061q9.881 0 13.978-3.615 4.338-3.615 4.338-13.737V90.857q0-10.845-3.856-15.906-3.856-5.302-14.46-5.302v-5.06q7.712.722 14.942.722 6.989 0 13.255-.723 6.507-.964 11.809-2.65m69.4-37.356V64.83h35.668v4.82h-35.668v93.267q0 11.327 4.097 15.906t11.327 4.579 12.532-5.784q5.303-6.025 9.158-20.003l4.82 1.205q-2.41 13.978-9.64 23.618-6.988 9.64-21.69 9.64-8.193 0-13.496-2.169a27.1 27.1 0 0 1-9.399-5.784q-5.302-5.543-7.471-13.255-1.928-7.712-1.928-20.485V69.649h-23.136v-4.82h23.136V27.956q6.025-.24 11.568-.964 5.544-.723 10.122-2.41m73.871-20.244q6.265 0 10.845 4.58 4.579 4.578 4.579 10.844t-4.579 10.845q-4.58 4.58-10.845 4.58-6.267 0-10.845-4.58-4.58-4.578-4.579-10.845 0-6.265 4.579-10.845t10.845-4.579m12.532 57.6V166.29q0 10.122 4.097 13.737 4.338 3.615 14.219 3.615v5.061q-4.098-.241-12.532-.482a284 284 0 0 0-16.629-.482q-8.195 0-16.629.482-8.436.241-12.532.482v-5.061q9.88 0 13.978-3.615 4.338-3.615 4.338-13.737V90.857q0-10.845-3.856-15.906-3.857-5.302-14.46-5.302v-5.06q7.712.722 14.942.722 6.988 0 13.255-.723 6.507-.964 11.809-2.65m129.409 1.445-69.649 121.705h26.51q9.64 0 16.629-3.856 7.23-3.857 11.568-12.291 4.338-8.676 5.302-22.654h5.543q0 15.424.241 26.028t.723 17.352a907 907 0 0 0-22.172-.723q-11.327-.241-22.654-.241-12.05 0-24.582.241-12.532.482-24.1.964l69.649-121.705h-26.51q-10.604 0-17.834 3.856-6.988 3.856-10.845 12.532-3.615 8.436-4.82 22.413h-5.543q0-15.665-.241-26.028-.241-10.604-.723-17.352 10.604.482 21.931.723 11.568.24 22.895.241 12.05 0 24.582-.24a7513 7513 0 0 0 24.1-.965m74.369-2.169q21.209 0 33.017 13.014 12.05 12.773 12.05 40.006H519.72l-.241-4.579h62.178q.483-11.81-1.928-21.69-2.41-10.122-7.712-16.147-5.06-6.025-13.255-6.025-11.085 0-19.762 11.086-8.435 11.086-10.122 35.186l.723.964q-.481 3.615-.723 7.953a157 157 0 0 0-.241 8.676q0 16.388 5.302 28.197 5.303 11.81 13.737 18.075 8.676 6.025 17.834 6.025 7.23 0 13.737-2.169 6.507-2.41 12.05-7.712t9.64-14.219l4.82 1.928q-2.65 7.953-8.676 15.424-6.024 7.471-15.183 12.291-9.157 4.58-21.208 4.579-17.352 0-29.884-7.953-12.29-7.953-19.039-21.931-6.507-14.219-6.507-32.535 0-21.209 6.748-36.39 6.748-15.425 19.039-23.619 12.291-8.435 28.679-8.435m144.325 0q9.159 0 15.183 2.41 6.267 2.41 10.363 6.748 4.58 4.82 6.507 12.05 1.928 7.23 1.928 19.521v64.347q0 10.122 4.097 13.737 4.338 3.615 14.219 3.615v5.061q-4.096-.241-12.532-.482a288 288 0 0 0-16.388-.482q-7.952 0-15.665.482-7.47.241-11.327.482v-5.061q8.676 0 12.291-3.615t3.615-13.737V96.641q0-7.47-1.205-13.737-1.205-6.266-5.543-10.122-4.097-3.856-12.773-3.856-10.121 0-17.834 5.784-7.47 5.784-11.809 15.906-4.097 9.881-4.097 22.172v53.502q0 10.122 3.615 13.737t12.291 3.615v5.061q-3.855-.241-11.568-.482a240 240 0 0 0-15.424-.482q-7.952 0-16.388.482-8.434.241-12.532.482v-5.061q9.882 0 13.978-3.615 4.338-3.615 4.338-13.737V90.857q0-10.845-3.856-15.906-3.855-5.302-14.46-5.302v-5.06q7.712.722 14.942.722 6.99 0 13.255-.723 6.507-.964 11.809-2.65v28.437q6.267-16.387 17.352-22.654 11.327-6.507 23.618-6.507m186.216-43.139a311 311 0 0 0-1.446 16.388q-.24 7.953-.241 12.05 0 4.338.241 8.435.242 3.856.482 6.507h-5.543q-1.446-14.22-4.097-22.413-2.65-8.435-9.158-11.809-6.265-3.615-19.039-3.615h-20.003q-8.194 0-12.532 1.446-4.097 1.205-5.543 5.543-1.446 4.097-1.446 13.014v119.536q0 8.676 1.446 13.014t5.543 5.784q4.338 1.205 12.532 1.205h17.593q15.183 0 22.895-4.097 7.953-4.097 11.327-13.255 3.615-9.399 5.302-25.305h5.543q-.723 6.507-.723 17.352 0 4.58.241 13.255a372 372 0 0 0 1.446 17.593q-12.29-.482-27.715-.482-15.423-.241-27.474-.241h-13.737q-8.193 0-17.834.241-9.639 0-19.521.241-9.88 0-18.798.241v-4.82q8.194-.482 12.291-1.928 4.338-1.446 5.784-5.784t1.446-13.014V43.621q0-8.918-1.446-13.014-1.446-4.338-5.784-5.784-4.096-1.687-12.291-1.928v-4.82q8.918.241 18.798.482 9.882 0 19.521.241h56.635q14.22-.24 25.305-.723m-41.452 82.422v4.82h-44.103v-4.82zm6.989-31.812q-.964 13.737-.964 20.967.241 7.23.241 13.255t.241 13.255 1.205 20.967h-5.543a207 207 0 0 0-2.41-14.942q-1.204-7.471-5.784-12.05-4.338-4.82-14.942-4.82v-4.82q7.953 0 12.05-3.133 4.338-3.374 6.266-8.435a46.7 46.7 0 0 0 2.651-10.363q.723-5.543 1.446-9.88zm92.153 121.705q-9.882 0-17.111-3.615-7.23-3.856-11.086-10.604-3.615-6.748-3.615-15.665 0-10.603 4.82-17.352 5.06-6.748 12.773-10.845a95 95 0 0 1 16.147-6.748 917 917 0 0 1 16.388-5.302q7.711-2.651 12.532-6.025 5.061-3.374 5.061-8.917V90.375q0-10.123-3.133-15.424-2.892-5.301-7.953-6.989-5.061-1.928-11.327-1.928-6.025 0-13.014 1.687-6.749 1.687-10.845 6.99 4.578.963 7.953 4.82 3.374 3.855 3.374 9.88t-3.856 9.64q-3.857 3.374-9.881 3.374-6.99 0-10.363-4.338-3.133-4.58-3.133-10.122 0-6.266 3.133-10.122t7.953-7.23q5.543-3.856 14.219-6.507 8.916-2.892 20.003-2.892 9.88 0 16.87 2.41 6.988 2.169 11.568 6.507c4.177 3.856 6.906 8.596 8.196 14.22 1.28 5.462 1.93 12.05 1.93 19.761v66.998q0 6.026 1.68 8.676 1.935 2.65 5.79 2.651c1.76 0 3.45-.402 5.06-1.205 1.6-.803 3.53-2.089 5.78-3.856l2.65 4.097c-3.37 2.571-6.58 4.74-9.64 6.507-3.05 1.607-7.15 2.41-12.29 2.41q-6.987 0-11.566-2.41t-6.989-6.989q-2.169-4.82-2.169-12.05-6.507 10.845-15.665 16.147-8.917 5.302-20.244 5.302m8.676-9.64q7.953 0 14.701-4.579 6.988-4.58 12.532-13.737v-47.236q-2.892 4.097-8.435 6.989a480 480 0 0 1-12.05 5.543 77.3 77.3 0 0 0-12.532 6.507q-5.785 3.615-9.64 9.64t-3.856 15.665 5.061 15.424q5.301 5.784 14.219 5.784M1108.71 61.214c4.34 0 8.12.884 11.33 2.651q5.07 2.65 7.71 6.99c1.93 2.73 2.9 5.864 2.9 9.398 0 4.017-1.29 7.552-3.86 10.604-2.41 3.053-5.7 4.58-9.88 4.58-3.38 0-6.35-1.045-8.92-3.134-2.57-2.25-3.85-5.382-3.85-9.399 0-3.052.8-5.623 2.41-7.712 1.76-2.25 3.69-4.016 5.78-5.302-1.12-1.606-2.81-2.41-5.06-2.41q-7.47 0-13.74 4.58c-4.18 2.891-7.71 6.667-10.6 11.326a63 63 0 0 0-6.75 14.942c-1.61 5.141-2.41 9.961-2.41 14.46v51.092q0 11.81 6.75 15.906c4.66 2.571 10.92 3.856 18.8 3.856v5.061c-3.7-.161-8.92-.321-15.67-.482q-10.125-.482-21.45-.482c-5.46 0-10.92.161-16.39.482-5.3.161-9.31.321-12.05.482v-5.061q9.885 0 13.98-3.615c2.89-2.41 4.34-6.989 4.34-13.737V90.857c0-7.23-1.29-12.532-3.86-15.906q-3.855-5.302-14.46-5.302v-5.06c5.15.481 10.13.722 14.95.722 4.66 0 9.07-.24 13.25-.723 4.34-.643 8.28-1.526 11.81-2.65v30.124q2.655-6.989 7.47-13.978c3.37-4.82 7.39-8.836 12.05-12.05q6.99-4.82 15.42-4.82m71.18-36.632V64.83h35.66v4.82h-35.66v93.267c0 7.551 1.36 12.853 4.09 15.906s6.51 4.579 11.33 4.579 9-1.928 12.53-5.784c3.54-4.017 6.59-10.684 9.16-20.003l4.82 1.205c-1.61 9.319-4.82 17.191-9.64 23.618q-6.99 9.64-21.69 9.64-8.19 0-13.5-2.169a27.2 27.2 0 0 1-9.4-5.784q-5.295-5.543-7.47-13.255-1.92-7.712-1.92-20.485V69.649h-23.14v-4.82h23.14V27.956c4.01-.16 7.87-.482 11.56-.964 3.7-.482 7.07-1.285 10.13-2.41M1264.12 0v90.134c4.18-10.925 9.96-18.476 17.35-22.654 7.55-4.177 15.42-6.266 23.62-6.266q9.15 0 15.18 2.41c4.18 1.607 7.63 3.856 10.36 6.748q4.59 4.82 6.51 12.05c1.29 4.82 1.93 11.327 1.93 19.521v64.347c0 6.748 1.37 11.327 4.1 13.737q4.335 3.615 14.22 3.615v5.061c-2.74-.161-6.91-.321-12.54-.482a287 287 0 0 0-16.38-.482c-5.31 0-10.53.161-15.67.482-4.98.161-8.76.321-11.33.482v-5.061c5.79 0 9.88-1.205 12.29-3.615s3.62-6.989 3.62-13.737V96.641c0-4.98-.4-9.56-1.21-13.737-.8-4.177-2.65-7.551-5.54-10.122-2.73-2.57-6.99-3.856-12.77-3.856-6.59 0-12.45 1.848-17.59 5.543-4.99 3.695-8.92 8.837-11.81 15.424-2.9 6.588-4.34 14.139-4.34 22.654v53.743c0 6.748 1.2 11.327 3.61 13.737s6.51 3.615 12.29 3.615v5.061c-2.57-.161-6.42-.321-11.56-.482-4.98-.321-10.13-.482-15.43-.482s-10.76.161-16.39.482c-5.62.161-9.8.321-12.53.482v-5.061q9.885 0 13.98-3.615c2.89-2.41 4.34-6.989 4.34-13.737V28.92c0-7.23-1.29-12.532-3.86-15.906q-3.855-5.302-14.46-5.302v-5.06q7.71.722 14.94.722 6.99 0 13.26-.723c4.34-.643 8.27-1.526 11.81-2.65"/></svg>