<svg width="1821" height="277" viewBox="0 0 1821 277" fill="none" xmlns="http://www.w3.org/2000/svg">
<path d="M31.122 271.89H1.36795L42.4079 125.172C43.32 122.436 44.004 119.472 44.46 116.28C45.144 112.86 45.03 110.01 44.118 107.73C43.206 105.222 40.926 103.968 37.2779 103.968C32.262 103.968 27.816 106.476 23.94 111.492C20.064 116.28 15.732 125.4 10.9439 138.852L6.49795 151.506H-5.03175e-05L8.54995 126.54C13.5659 112.176 19.722 102.714 27.018 98.1539C34.542 93.5939 41.952 91.3139 49.248 91.3139C56.088 91.3139 60.99 92.7959 63.954 95.7599C67.146 98.7239 68.856 102.6 69.084 107.388C69.54 111.948 69.198 117.078 68.058 122.778C67.146 128.25 66.006 133.722 64.638 139.194L31.122 271.89ZM46.854 200.754C54.834 180.234 62.586 163.02 70.11 149.112C77.634 135.204 85.044 124.032 92.34 115.596C99.636 106.932 107.046 100.776 114.57 97.1279C122.322 93.2519 130.302 91.3139 138.51 91.3139C149.226 91.3139 156.522 93.9359 160.398 99.1799C164.502 104.196 166.326 110.694 165.87 118.674C165.414 126.426 163.818 134.52 161.082 142.956L127.908 242.82C125.856 248.976 124.944 254.106 125.172 258.21C125.628 262.086 128.364 264.024 133.38 264.024C137.712 264.024 141.93 261.63 146.034 256.842C150.366 252.054 154.926 242.82 159.714 229.14L164.16 216.486H170.658L162.108 241.452C158.916 251.028 154.926 258.324 150.138 263.34C145.578 268.356 140.676 271.776 135.432 273.6C130.416 275.652 125.514 276.678 120.726 276.678C115.254 276.678 110.694 275.766 107.046 273.942C103.626 272.118 101.004 269.724 99.18 266.76C96.672 262.656 95.874 257.298 96.786 250.686C97.698 244.074 99.522 236.778 102.258 228.798L134.748 130.986C135.888 127.794 136.8 124.032 137.484 119.7C138.396 115.14 138.282 111.15 137.142 107.73C136.002 104.082 132.696 102.258 127.224 102.258C121.752 102.258 115.938 104.652 109.782 109.44C103.626 114.228 97.242 121.068 90.63 129.96C84.018 138.624 77.52 149.112 71.136 161.424C64.752 173.508 58.596 186.96 52.668 201.78C46.968 216.372 41.724 231.99 36.936 248.634L46.854 200.754ZM232.929 265.734C238.401 265.734 244.671 262.314 251.739 255.474C258.807 248.406 265.989 238.944 273.285 227.088C280.581 215.232 287.307 201.78 293.463 186.732C299.619 171.684 304.521 156.066 308.169 139.878L302.355 176.814C293.691 200.982 285.027 220.476 276.363 235.296C267.699 249.888 258.921 260.49 250.029 267.102C241.137 273.486 232.131 276.678 223.011 276.678C212.295 276.678 204.201 272.802 198.729 265.05C193.485 257.298 190.863 247.38 190.863 235.296C190.863 224.352 192.687 212.496 196.335 199.728C199.983 186.732 204.999 173.85 211.383 161.082C217.995 148.314 225.519 136.686 233.955 126.198C242.391 115.71 251.511 107.274 261.315 100.89C271.347 94.5059 281.493 91.3139 291.753 91.3139C299.733 91.3139 305.775 95.3039 309.879 103.284C314.211 111.036 315.123 121.98 312.615 136.116L308.853 138.168C310.449 126.084 309.651 116.394 306.459 109.098C303.267 101.574 298.023 97.8119 290.727 97.8119C284.799 97.8119 278.529 100.776 271.917 106.704C265.533 112.404 259.263 120.27 253.107 130.302C247.179 140.106 241.707 151.164 236.691 163.476C231.903 175.788 228.027 188.556 225.063 201.78C222.327 214.776 220.959 227.316 220.959 239.4C220.959 249.204 221.985 256.044 224.037 259.92C226.317 263.796 229.281 265.734 232.929 265.734ZM319.113 96.1019C324.585 95.8739 330.057 95.4179 335.529 94.7339C341.001 94.0499 346.017 92.9099 350.577 91.3139L307.827 242.478C307.371 244.53 306.687 247.266 305.775 250.686C305.091 253.878 305.091 256.842 305.775 259.578C306.687 262.314 309.081 263.682 312.957 263.682C317.517 263.682 321.963 261.174 326.295 256.158C330.627 251.142 334.959 242.022 339.291 228.798L343.395 216.144H349.893L341.343 241.11C338.151 250.23 334.275 257.412 329.715 262.656C325.383 267.672 320.823 271.206 316.035 273.258C311.247 275.538 306.573 276.678 302.013 276.678C293.121 276.678 286.851 273.714 283.203 267.786C280.239 262.542 279.441 256.5 280.809 249.66C282.177 242.592 283.773 235.524 285.597 228.456L319.113 96.1019ZM495.05 96.1019L494.024 102.942H387.662L389.372 96.1019H495.05ZM408.182 242.82C406.13 250.344 406.586 255.816 409.55 259.236C412.742 262.428 416.846 264.024 421.862 264.024C426.878 264.024 431.894 261.858 436.91 257.526C442.154 253.194 447.284 243.96 452.3 229.824L457.088 216.486H463.586L456.404 238.032C451.388 252.852 444.89 262.998 436.91 268.47C429.158 273.942 420.038 276.678 409.55 276.678C400.202 276.678 393.02 274.74 388.004 270.864C383.216 266.76 380.366 261.06 379.454 253.764C378.542 246.468 379.454 238.146 382.19 228.798L435.2 44.1179C440.672 43.8899 446.03 43.4339 451.274 42.7499C456.746 42.0659 461.648 40.9259 465.98 39.3299L408.182 242.82ZM617.465 153.558C609.257 176.358 601.391 195.624 593.867 211.356C586.343 227.088 578.819 239.742 571.295 249.318C563.999 258.894 556.475 265.848 548.723 270.18C541.199 274.512 533.333 276.678 525.125 276.678C515.093 276.678 507.797 274.398 503.237 269.838C498.677 265.278 496.397 259.122 496.397 251.37C496.397 243.618 497.993 234.84 501.185 225.036L534.359 125.172C536.639 118.332 537.437 113.088 536.753 109.44C536.069 105.792 533.447 103.968 528.887 103.968C524.555 103.968 520.223 106.362 515.891 111.15C511.787 115.938 507.341 125.172 502.553 138.852L498.107 151.506H491.609L500.159 126.54C503.579 116.964 507.569 109.668 512.129 104.652C516.917 99.6359 521.819 96.2159 526.835 94.3919C532.079 92.3399 536.981 91.3139 541.541 91.3139C551.573 91.3139 558.185 93.7079 561.377 98.4959C564.797 103.056 566.051 108.984 565.139 116.28C564.455 123.576 562.745 131.214 560.009 139.194L527.519 237.006C521.135 256.158 523.643 265.734 535.043 265.734C540.515 265.734 546.329 263.34 552.485 258.552C558.641 253.536 564.911 246.468 571.295 237.348C577.679 228 583.949 216.942 590.105 204.174C596.489 191.178 602.531 176.814 608.231 161.082C614.159 145.122 619.517 128.022 624.305 109.782L617.465 153.558ZM616.439 242.82C614.843 248.976 614.045 254.106 614.045 258.21C614.273 262.086 616.667 264.024 621.227 264.024C626.243 264.024 630.803 261.402 634.907 256.158C639.239 250.686 643.571 241.68 647.903 229.14L652.349 216.486H658.847L650.297 241.452C647.105 251.028 643.115 258.324 638.327 263.34C633.767 268.356 628.865 271.776 623.621 273.6C618.605 275.652 613.703 276.678 608.915 276.678C605.267 276.678 601.847 275.88 598.655 274.284C595.463 272.688 593.069 270.408 591.473 267.444C589.649 263.568 588.965 258.666 589.421 252.738C590.105 246.81 591.701 238.83 594.209 228.798L627.725 96.1019C633.425 95.8739 638.897 95.4179 644.141 94.7339C649.613 94.0499 654.515 92.9099 658.847 91.3139L616.439 242.82ZM717.118 271.89H687.364L728.404 125.172C730.684 117.42 731.368 111.948 730.456 108.756C729.772 105.564 727.492 103.968 723.616 103.968C718.6 103.968 714.04 106.59 709.936 111.834C705.832 117.078 701.5 126.084 696.94 138.852L692.494 151.506H685.996L694.546 126.54C697.966 116.964 701.956 109.668 706.516 104.652C711.304 99.6359 716.206 96.2159 721.222 94.3919C726.466 92.3399 731.368 91.3139 735.928 91.3139C742.768 91.3139 747.556 92.7959 750.292 95.7599C753.256 98.7239 754.852 102.6 755.08 107.388C755.536 112.176 755.194 117.42 754.054 123.12C753.142 128.592 752.002 133.95 750.634 139.194L717.118 271.89ZM805.012 99.8639C799.768 99.8639 794.296 102.372 788.596 107.388C783.124 112.176 777.424 119.244 771.496 128.592C765.796 137.712 759.982 148.77 754.054 161.766C748.354 174.534 742.654 188.784 736.954 204.516C731.482 220.248 726.124 237.234 720.88 255.474L729.43 211.698C736.954 189.354 743.908 170.544 750.292 155.268C756.904 139.992 763.402 127.68 769.786 118.332C776.17 108.756 782.668 101.916 789.28 97.8119C796.12 93.4799 803.302 91.3139 810.826 91.3139C817.21 91.3139 822.112 93.1379 825.532 96.7859C829.18 100.434 831.004 105.108 831.004 110.808C831.004 115.368 829.864 119.586 827.584 123.462C825.304 127.11 822.34 130.074 818.692 132.354C815.272 134.406 811.396 135.432 807.064 135.432C803.188 135.432 799.882 134.406 797.146 132.354C794.638 130.074 793.384 126.996 793.384 123.12C793.384 119.472 794.068 116.28 795.436 113.544C796.804 110.58 798.628 108.072 800.908 106.02C803.188 103.968 805.81 102.372 808.774 101.232C808.318 100.776 807.748 100.434 807.064 100.206C806.608 99.9779 805.924 99.8639 805.012 99.8639ZM859.817 265.734C865.289 265.734 871.559 262.314 878.627 255.474C885.695 248.406 892.877 238.944 900.173 227.088C907.469 215.232 914.195 201.78 920.351 186.732C926.507 171.684 931.409 156.066 935.057 139.878L929.243 176.814C920.579 200.982 911.915 220.476 903.251 235.296C894.587 249.888 885.809 260.49 876.917 267.102C868.025 273.486 859.019 276.678 849.899 276.678C839.183 276.678 831.089 272.802 825.617 265.05C820.373 257.298 817.751 247.38 817.751 235.296C817.751 224.352 819.575 212.496 823.223 199.728C826.871 186.732 831.887 173.85 838.271 161.082C844.883 148.314 852.407 136.686 860.843 126.198C869.279 115.71 878.399 107.274 888.203 100.89C898.235 94.5059 908.381 91.3139 918.641 91.3139C926.621 91.3139 932.663 95.3039 936.767 103.284C941.099 111.036 942.011 121.98 939.503 136.116L935.741 138.168C937.337 126.084 936.539 116.394 933.347 109.098C930.155 101.574 924.911 97.8119 917.615 97.8119C911.687 97.8119 905.417 100.776 898.805 106.704C892.421 112.404 886.151 120.27 879.995 130.302C874.067 140.106 868.595 151.164 863.579 163.476C858.791 175.788 854.915 188.556 851.951 201.78C849.215 214.776 847.847 227.316 847.847 239.4C847.847 249.204 848.873 256.044 850.925 259.92C853.205 263.796 856.169 265.734 859.817 265.734ZM946.001 96.1019C951.473 95.8739 956.945 95.4179 962.417 94.7339C967.889 94.0499 972.905 92.9099 977.465 91.3139L934.715 242.478C934.259 244.53 933.575 247.266 932.663 250.686C931.979 253.878 931.979 256.842 932.663 259.578C933.575 262.314 935.969 263.682 939.845 263.682C944.405 263.682 948.851 261.174 953.183 256.158C957.515 251.142 961.847 242.022 966.179 228.798L970.283 216.144H976.781L968.231 241.11C965.039 250.23 961.163 257.412 956.603 262.656C952.271 267.672 947.711 271.206 942.923 273.258C938.135 275.538 933.461 276.678 928.901 276.678C920.009 276.678 913.739 273.714 910.091 267.786C907.127 262.542 906.329 256.5 907.697 249.66C909.065 242.592 910.661 235.524 912.485 228.456L946.001 96.1019ZM1028.57 242.82C1026.75 249.432 1026.18 254.676 1026.86 258.552C1027.55 262.2 1030.05 264.024 1034.39 264.024C1038.95 264.024 1043.16 261.516 1047.04 256.5C1051.14 251.256 1055.48 242.136 1060.04 229.14L1064.48 216.486H1070.98L1062.43 241.452C1059.47 250.116 1055.82 257.07 1051.49 262.314C1047.38 267.33 1042.82 270.978 1037.81 273.258C1032.79 275.538 1027.32 276.678 1021.39 276.678C1013.87 276.678 1008.28 275.196 1004.63 272.232C1001.21 269.496 999.047 265.734 998.135 260.946C997.451 256.158 997.565 251.028 998.477 245.556C999.617 239.856 1000.98 234.27 1002.58 228.798L1058.33 43.7759C1060.61 36.0239 1060.38 30.3239 1057.64 26.6759C1054.91 23.0279 1047.95 21.2039 1036.78 21.2039L1039.17 14.0219C1051.71 13.7939 1062.77 12.5399 1072.35 10.2599C1081.92 7.75188 1091.16 4.33189 1100.05 -0.00011313L1028.57 242.82ZM1263.26 248.292C1255.73 256.5 1247.3 263.34 1237.95 268.812C1228.83 274.056 1219.03 276.678 1208.54 276.678C1198.05 276.678 1189.73 274.854 1183.57 271.206C1177.42 267.558 1172.97 262.77 1170.23 256.842C1167.5 250.686 1166.13 244.302 1166.13 237.69C1166.13 226.518 1169.32 215.004 1175.71 203.148C1182.09 191.292 1190.41 179.55 1200.67 167.922C1211.16 156.066 1222.56 144.78 1234.87 134.064C1247.18 123.348 1259.15 113.772 1270.78 105.336L1276.25 104.31C1272.61 105.678 1268.73 107.616 1264.63 110.124C1260.52 112.404 1256.53 114.798 1252.66 117.306C1248.78 119.586 1245.02 121.638 1241.37 123.462C1237.72 125.058 1234.3 125.856 1231.11 125.856C1226.78 125.856 1223.02 124.488 1219.82 121.752C1216.86 118.788 1213.44 117.306 1209.56 117.306C1205.92 117.306 1202.84 118.902 1200.33 122.094C1197.82 125.058 1195.31 130.53 1192.81 138.51L1188.7 151.164H1182.2L1190.07 126.198C1194.63 112.746 1199.53 103.626 1204.78 98.8379C1210.25 93.8219 1215.95 91.3139 1221.88 91.3139C1226.21 91.3139 1229.86 92.4539 1232.82 94.7339C1236.01 97.0139 1239.09 99.2939 1242.05 101.574C1245.25 103.626 1249.01 104.652 1253.34 104.652C1258.81 104.652 1263.71 103.854 1268.05 102.258C1272.38 100.434 1276.6 97.6979 1280.7 94.0499L1285.49 87.5519L1292.67 90.9719C1280.81 100.776 1269.3 111.264 1258.13 122.436C1247.18 133.608 1237.27 145.35 1228.37 157.662C1219.71 169.746 1212.76 182.4 1207.51 195.624C1202.27 208.62 1199.65 221.958 1199.65 235.638C1199.65 247.038 1201.36 255.018 1204.78 259.578C1208.2 264.138 1212.76 266.418 1218.46 266.418C1225.3 266.418 1232.48 264.366 1240 260.262C1247.53 255.93 1254.82 249.774 1261.89 241.794L1263.26 248.292ZM1301.22 266.76C1312.39 266.76 1322.08 263.568 1330.29 257.184C1338.73 250.8 1345.68 242.592 1351.15 232.56C1356.62 222.3 1360.73 211.356 1363.46 199.728C1366.43 187.872 1368.14 176.586 1368.59 165.87C1369.05 154.926 1368.25 145.692 1366.2 138.168C1361.87 137.256 1357.19 135.66 1352.18 133.38C1347.16 130.872 1342.83 127.566 1339.18 123.462C1335.53 119.13 1333.71 113.886 1333.71 107.73C1333.71 101.802 1335.31 97.5839 1338.5 95.0759C1341.69 92.5679 1344.88 91.3139 1348.07 91.3139C1351.49 91.3139 1354.46 92.3399 1356.97 94.3919C1359.7 96.4439 1362.1 99.2939 1364.15 102.942C1366.2 106.59 1368.02 110.922 1369.62 115.938C1371.22 120.726 1372.47 125.97 1373.38 131.67C1375.66 141.93 1376.57 153.444 1376.12 166.212C1375.66 178.98 1373.72 191.862 1370.3 204.858C1366.88 217.626 1361.75 229.482 1354.91 240.426C1348.07 251.37 1339.41 260.148 1328.92 266.76C1318.66 273.372 1306.35 276.678 1291.99 276.678C1284.69 276.678 1277.96 275.31 1271.81 272.574C1265.65 269.838 1260.64 265.05 1256.76 258.21C1253.11 251.37 1251.29 241.908 1251.29 229.824C1251.29 219.792 1252.88 209.988 1256.08 200.412C1259.5 190.836 1263.83 182.172 1269.07 174.42C1274.32 166.668 1279.79 160.512 1285.49 155.952C1291.19 151.392 1296.43 149.112 1301.22 149.112C1304.64 149.112 1307.15 150.366 1308.74 152.874C1310.57 155.382 1311.71 158.574 1312.16 162.45C1312.85 166.098 1313.19 169.632 1313.19 173.052C1313.19 185.364 1309.77 197.904 1302.93 210.672C1296.32 223.44 1285.94 235.182 1271.81 245.898L1270.1 239.742C1280.81 231.306 1289.36 221.046 1295.75 208.962C1302.13 196.878 1305.32 184.794 1305.32 172.71C1305.32 168.15 1304.87 164.388 1303.96 161.424C1303.04 158.232 1301.33 156.636 1298.83 156.636C1295.18 156.636 1291.07 159.6 1286.51 165.528C1281.95 171.228 1277.96 178.638 1274.54 187.758C1271.35 196.65 1269.76 206.112 1269.76 216.144C1269.76 224.352 1270.67 232.332 1272.49 240.084C1274.54 247.836 1277.85 254.22 1282.41 259.236C1287.2 264.252 1293.47 266.76 1301.22 266.76ZM1499.77 98.1539C1492.48 98.1539 1485.41 101.118 1478.57 107.046C1471.96 112.746 1465.8 120.612 1460.1 130.644C1454.63 140.448 1449.73 151.506 1445.4 163.818C1441.29 176.13 1438.1 188.898 1435.82 202.122C1433.54 215.346 1432.4 228 1432.4 240.084C1432.4 250.344 1434 257.868 1437.19 262.656C1440.61 267.444 1445.51 269.838 1451.89 269.838C1459.19 269.838 1466.14 266.988 1472.76 261.288C1479.6 255.36 1485.87 247.494 1491.57 237.69C1497.27 227.658 1502.17 216.486 1506.27 204.174C1510.38 191.862 1513.57 179.208 1515.85 166.212C1518.13 152.988 1519.27 140.22 1519.27 127.908C1519.27 117.42 1517.67 109.896 1514.48 105.336C1511.29 100.548 1506.39 98.1539 1499.77 98.1539ZM1402.99 222.984C1402.99 212.952 1404.36 202.008 1407.09 190.152C1409.83 178.296 1413.93 166.554 1419.4 154.926C1424.88 143.298 1431.49 132.696 1439.24 123.12C1447.22 113.544 1456.45 105.906 1466.94 100.206C1477.43 94.2779 1489.06 91.3139 1501.83 91.3139C1515.96 91.3139 1527.25 95.7599 1535.68 104.652C1544.35 113.316 1548.68 126.768 1548.68 145.008C1548.68 155.04 1547.31 165.984 1544.58 177.84C1541.84 189.696 1537.74 201.438 1532.26 213.066C1526.79 224.694 1520.07 235.296 1512.09 244.872C1504.33 254.448 1495.21 262.2 1484.73 268.128C1474.24 273.828 1462.61 276.678 1449.84 276.678C1435.71 276.678 1424.31 272.232 1415.64 263.34C1407.21 254.448 1402.99 240.996 1402.99 222.984ZM1604.18 271.89H1574.43L1615.47 125.172C1617.75 117.42 1618.43 111.948 1617.52 108.756C1616.83 105.564 1614.55 103.968 1610.68 103.968C1605.66 103.968 1601.1 106.59 1597 111.834C1592.89 117.078 1588.56 126.084 1584 138.852L1579.56 151.506H1573.06L1581.61 126.54C1585.03 116.964 1589.02 109.668 1593.58 104.652C1598.37 99.6359 1603.27 96.2159 1608.28 94.3919C1613.53 92.3399 1618.43 91.3139 1622.99 91.3139C1629.83 91.3139 1634.62 92.7959 1637.35 95.7599C1640.32 98.7239 1641.91 102.6 1642.14 107.388C1642.6 112.176 1642.26 117.42 1641.12 123.12C1640.2 128.592 1639.06 133.95 1637.7 139.194L1604.18 271.89ZM1692.07 99.8639C1686.83 99.8639 1681.36 102.372 1675.66 107.388C1670.19 112.176 1664.49 119.244 1658.56 128.592C1652.86 137.712 1647.04 148.77 1641.12 161.766C1635.42 174.534 1629.72 188.784 1624.02 204.516C1618.54 220.248 1613.19 237.234 1607.94 255.474L1616.49 211.698C1624.02 189.354 1630.97 170.544 1637.35 155.268C1643.97 139.992 1650.46 127.68 1656.85 118.332C1663.23 108.756 1669.73 101.916 1676.34 97.8119C1683.18 93.4799 1690.36 91.3139 1697.89 91.3139C1704.27 91.3139 1709.17 93.1379 1712.59 96.7859C1716.24 100.434 1718.07 105.108 1718.07 110.808C1718.07 115.368 1716.93 119.586 1714.65 123.462C1712.37 127.11 1709.4 130.074 1705.75 132.354C1702.33 134.406 1698.46 135.432 1694.13 135.432C1690.25 135.432 1686.94 134.406 1684.21 132.354C1681.7 130.074 1680.45 126.996 1680.45 123.12C1680.45 119.472 1681.13 116.28 1682.5 113.544C1683.87 110.58 1685.69 108.072 1687.97 106.02C1690.25 103.968 1692.87 102.372 1695.84 101.232C1695.38 100.776 1694.81 100.434 1694.13 100.206C1693.67 99.9779 1692.99 99.8639 1692.07 99.8639ZM1743.3 242.82C1741.48 249.432 1740.91 254.676 1741.59 258.552C1742.27 262.2 1744.78 264.024 1749.11 264.024C1753.67 264.024 1757.89 261.516 1761.77 256.5C1765.87 251.256 1770.2 242.136 1774.76 229.14L1779.21 216.486H1785.71L1777.16 241.452C1774.19 250.116 1770.55 257.07 1766.21 262.314C1762.11 267.33 1757.55 270.978 1752.53 273.258C1747.52 275.538 1742.05 276.678 1736.12 276.678C1728.59 276.678 1723.01 275.196 1719.36 272.232C1715.94 269.496 1713.77 265.734 1712.86 260.946C1712.18 256.158 1712.29 251.028 1713.2 245.556C1714.34 239.856 1715.71 234.27 1717.31 228.798L1773.05 43.7759C1775.33 36.0239 1775.11 30.3239 1772.37 26.6759C1769.63 23.0279 1762.68 21.2039 1751.51 21.2039L1753.9 14.0219C1766.44 13.7939 1777.5 12.5399 1787.08 10.2599C1796.65 7.75188 1805.89 4.33189 1814.78 -0.00011313L1743.3 242.82ZM1929.47 242.82C1927.87 248.064 1927.19 252.966 1927.41 257.526C1927.87 261.858 1930.61 264.024 1935.62 264.024C1940.18 264.024 1944.4 261.516 1948.28 256.5C1952.15 251.256 1956.26 242.136 1960.59 229.14L1964.69 216.486H1971.19L1963.32 241.452C1960.59 250.572 1956.94 257.754 1952.38 262.998C1947.82 268.014 1943.03 271.548 1938.02 273.6C1933 275.652 1928.21 276.678 1923.65 276.678C1909.97 276.678 1902.79 270.18 1902.11 257.184C1901.88 253.536 1902.11 249.318 1902.79 244.53C1903.7 239.742 1904.96 234.498 1906.55 228.798L1955.8 43.7759C1957.85 36.0239 1957.51 30.3239 1954.77 26.6759C1952.04 23.0279 1945.08 21.2039 1933.91 21.2039L1935.96 14.0219C1948.5 13.7939 1959.56 12.5399 1969.14 10.2599C1978.71 7.75188 1987.83 4.33189 1996.5 -0.00011313L1929.47 242.82ZM1852.86 265.734C1858.56 265.734 1864.94 262.428 1872.01 255.816C1879.31 248.976 1886.6 239.856 1893.9 228.456C1901.42 216.828 1908.26 203.718 1914.42 189.126C1920.8 174.306 1925.82 159.03 1929.47 143.298L1924.34 180.234C1915.44 203.718 1906.55 222.528 1897.66 236.664C1889 250.8 1880.1 261.06 1870.98 267.444C1862.09 273.6 1852.74 276.678 1842.94 276.678C1835.87 276.678 1829.6 275.082 1824.13 271.89C1818.89 268.47 1814.78 263.454 1811.82 256.842C1808.85 250.23 1807.37 241.794 1807.37 231.534C1807.37 220.59 1809.08 208.848 1812.5 196.308C1816.15 183.54 1821.28 171 1827.89 158.688C1834.5 146.376 1842.37 135.204 1851.49 125.172C1860.84 114.912 1871.1 106.704 1882.27 100.548C1893.44 94.3919 1905.3 91.3139 1917.84 91.3139C1923.08 91.3139 1927.98 93.3659 1932.54 97.4699C1937.1 101.346 1939.61 107.274 1940.07 115.254L1937.33 122.094C1936.42 113.886 1934.14 108.072 1930.49 104.652C1926.84 101.004 1922.74 99.1799 1918.18 99.1799C1909.52 99.1799 1901.08 102.144 1892.87 108.072C1884.89 114 1877.6 121.866 1870.98 131.67C1864.37 141.474 1858.56 152.418 1853.54 164.502C1848.53 176.358 1844.65 188.556 1841.91 201.096C1839.18 213.408 1837.81 225.036 1837.81 235.98C1837.81 246.012 1839.06 253.536 1841.57 258.552C1844.08 263.34 1847.84 265.734 1852.86 265.734Z" fill="white"/>
</svg>
