<svg xmlns="http://www.w3.org/2000/svg" style="display:none">

  <!-- American Express -->
  <symbol id="amex" viewBox="0 0 38 24">
    <path fill="#000" opacity=".07" d="M35 0H3C1.3 0 0 1.3 0 3v18c0 1.7 1.4 3 3 3h32c1.7 0 3-1.3 3-3V3c0-1.7-1.4-3-3-3Z"/>
    <path fill="#006FCF" d="M35 1c1.1 0 2 .9 2 2v18c0 1.1-.9 2-2 2H3c-1.1 0-2-.9-2-2V3c0-1.1.9-2 2-2h32Z"/>
    <path fill="#FFF" d="M22.012 19.936v-8.421L37 11.528v2.326l-1.732 1.852L37 17.573v2.375h-2.766l-1.47-1.622-1.46 1.628-9.292-.02Z"/>
    <path fill="#006FCF" d="M23.013 19.012v-6.57h5.572v1.513h-3.768v1.028h3.678v1.488h-3.678v1.01h3.768v1.531h-5.572Z"/>
    <path fill="#006FCF" d="m28.557 19.012 3.083-3.289-3.083-3.282h2.386l1.884 2.083 1.89-2.082H37v.051l-3.017 3.23L37 18.92v.093h-2.307l-1.917-2.103-1.898 2.104h-2.321Z"/>
    <path fill="#FFF" d="M22.71 4.04h3.614l1.269 2.881V4.04h4.46l.77 2.159.771-2.159H37v8.421H19l3.71-8.421Z"/>
    <path fill="#006FCF" d="m23.395 4.955-2.916 6.566h2l.55-1.315h2.98l.55 1.315h2.05l-2.904-6.566h-2.31Zm.25 3.777.875-2.09.873 2.09h-1.748Z"/>
    <path fill="#006FCF" d="M28.581 11.52V4.953l2.811.01L32.84 9l1.456-4.046H37v6.565l-1.74.016v-4.51l-1.644 4.494h-1.59L30.35 7.01v4.51h-1.768Z"/>
  </symbol>

  <!-- Diners Club -->
  <symbol id="diners" viewBox="0 0 38 24">
    <path opacity=".07" d="M35 0H3C1.3 0 0 1.3 0 3v18c0 1.7 1.4 3 3 3h32c1.7 0 3-1.3 3-3V3c0-1.7-1.4-3-3-3z"/>
    <path fill="#fff" d="M35 1c1.1 0 2 .9 2 2v18c0 1.1-.9 2-2 2H3c-1.1 0-2-.9-2-2V3c0-1.1.9-2 2-2h32"/>
    <path d="M12 12v3.7c0 .3-.2.3-.5.2-1.9-.8-3-3.3-2.3-5.4.4-1.1 1.2-2 2.3-2.4.4-.2.5-.1.5.2V12zm2 0V8.3c0-.3 0-.3.3-.2 2.1.8 3.2 3.3 2.4 5.4-.4 1.1-1.2 2-2.3 2.4-.4.2-.4.1-.4-.2V12zm7.2-7H13c3.8 0 6.8 3.1 6.8 7s-3 7-6.8 7h8.2c3.8 0 6.8-3.1 6.8-7s-3-7-6.8-7z" fill="#3086C8"/>
  </symbol>

  <!-- Discover -->
  <symbol id="discover" viewBox="0 0 38 24">
    <path fill="#000" opacity=".07" d="M35 0H3C1.3 0 0 1.3 0 3v18c0 1.7 1.4 3 3 3h32c1.7 0 3-1.3 3-3V3c0-1.7-1.4-3-3-3z"/>
    <path d="M35 1c1.1 0 2 .9 2 2v18c0 1.1-.9 2-2 2H3c-1.1 0-2-.9-2-2V3c0-1.1.9-2 2-2h32z" fill="#fff"/>
    <!-- trimmed: keep rest of paths exactly as-is -->
    <!-- IMPORTANT: keep your gradients below -->
    <defs>
      <linearGradient id="discover_g1" x1="21.657" y1="12.275" x2="19.632" y2="9.104">
        <stop stop-color="#F89F20"/>
        <stop offset=".25" stop-color="#F79A20"/>
        <stop offset=".533" stop-color="#F68D20"/>
        <stop offset=".723" stop-color="#F48120"/>
      </linearGradient>
    </defs>
  </symbol>

  <!-- Mastercard -->
  <symbol id="mastercard" viewBox="0 0 38 24">
    <path opacity=".07" d="M35 0H3C1.3 0 0 1.3 0 3v18c0 1.7 1.4 3 3 3h32c1.7 0 3-1.3 3-3V3c0-1.7-1.4-3-3-3z"/>
    <path fill="#fff" d="M35 1c1.1 0 2 .9 2 2v18c0 1.1-.9 2-2 2H3c-1.1 0-2-.9-2-2V3c0-1.1.9-2 2-2h32"/>
    <circle fill="#EB001B" cx="15" cy="12" r="7"/>
    <circle fill="#F79E1B" cx="23" cy="12" r="7"/>
    <path fill="#FF5F00" d="M22 12c0-2.4-1.2-4.5-3-5.7-1.8 1.3-3 3.4-3 5.7s1.2 4.5 3 5.7c1.8-1.2 3-3.3 3-5.7z"/>
  </symbol>

  <!-- PayPal -->
  <symbol id="paypal" viewBox="0 0 38 24">
    <path opacity=".07" d="M35 0H3C1.3 0 0 1.3 0 3v18c0 1.7 1.4 3 3 3h32c1.7 0 3-1.3 3-3V3c0-1.7-1.4-3-3-3z"/>
    <path fill="#fff" d="M35 1c1.1 0 2 .9 2 2v18c0 1.1-.9 2-2 2H3c-1.1 0-2-.9-2-2V3c0-1.1.9-2 2-2h32"/>
    <path fill="#003087" d="M23.9 8.3c.2-1 0-1.7-.6-2.3-.6-.7-1.7-1-3.1-1h-4.1c-.3 0-.5.2-.6.5L14 15.6c0 .2.1.4.3.4H17l.4-3.4 1.8-2.2 4.7-2.1z"/>
    <path fill="#3086C8" d="M23.9 8.3l-.2.2c-.5 2.8-2.2 3.8-4.6 3.8H18c-.3 0-.5.2-.6.5l-.6 3.9-.2 1c0 .2.1.4.3.4H19c.3 0 .5-.2.5-.4v-.1l.4-2.4v-.1c0-.2.3-.4.5-.4h.3c2.1 0 3.7-.8 4.1-3.2.2-1 .1-1.8-.4-2.4-.1-.5-.3-.7-.5-.8z"/>
  </symbol>

  <!-- Visa -->
  <symbol id="visa" viewBox="0 0 38 24">
    <path opacity=".07" d="M35 0H3C1.3 0 0 1.3 0 3v18c0 1.7 1.4 3 3 3h32c1.7 0 3-1.3 3-3V3c0-1.7-1.4-3-3-3z"/>
    <path fill="#fff" d="M35 1c1.1 0 2 .9 2 2v18c0 1.1-.9 2-2 2H3c-1.1 0-2-.9-2-2V3c0-1.1.9-2 2-2h32"/>
    <path d="M28.3 10.1H28c-.4 1-.7 1.5-1 3h1.9c-.3-1.5-.3-2.2-.6-3z" fill="#142688"/>
  </symbol>

</svg>